<svg width="8" height="8" viewBox="0 0 8 8" fill="none" xmlns="http://www.w3.org/2000/svg">
<path fill-rule="evenodd" clip-rule="evenodd" d="M0.792893 0.7929C0.988155 0.597638 1.30474 0.597638 1.5 0.7929L4 3.2929L6.5 0.7929C6.69526 0.597638 7.01185 0.597638 7.20711 0.7929C7.40237 0.988163 7.40237 1.30475 7.20711 1.50001L4.70711 4.00001L7.20711 6.50001C7.40237 6.69527 7.40237 7.01185 7.20711 7.20711C7.01185 7.40238 6.69526 7.40238 6.5 7.20711L4 4.70711L1.5 7.20711C1.30474 7.40238 0.988155 7.40238 0.792893 7.20711C0.597631 7.01185 0.597631 6.69527 0.792893 6.50001L3.29289 4.00001L0.792893 1.50001C0.597631 1.30475 0.597631 0.988163 0.792893 0.7929Z" fill="#1F1F39"/>
</svg>
