<svg width="22" height="21" viewBox="0 0 22 21" fill="none" xmlns="http://www.w3.org/2000/svg">
<path fill-rule="evenodd" clip-rule="evenodd" d="M12.75 0.5C13.3023 0.5 13.75 0.947715 13.75 1.5V5.5C13.75 6.05228 13.3023 6.5 12.75 6.5C12.1977 6.5 11.75 6.05228 11.75 5.5V4.5H1.75C1.19772 4.5 0.75 4.05228 0.75 3.5C0.75 2.94772 1.19772 2.5 1.75 2.5H11.75V1.5C11.75 0.947715 12.1977 0.5 12.75 0.5ZM15.75 3.5C15.75 2.94772 16.1977 2.5 16.75 2.5H19.75C20.3023 2.5 20.75 2.94772 20.75 3.5C20.75 4.05228 20.3023 4.5 19.75 4.5H16.75C16.1977 4.5 15.75 4.05228 15.75 3.5ZM9.75 7.5C10.3023 7.5 10.75 7.94772 10.75 8.5V9.5H20.75C21.3023 9.5 21.75 9.94771 21.75 10.5C21.75 11.0523 21.3023 11.5 20.75 11.5H10.75V12.5C10.75 13.0523 10.3023 13.5 9.75 13.5C9.19772 13.5 8.75 13.0523 8.75 12.5V8.5C8.75 7.94772 9.19772 7.5 9.75 7.5ZM0.75 10.5C0.75 9.94771 1.19772 9.5 1.75 9.5H5.75C6.30228 9.5 6.75 9.94771 6.75 10.5C6.75 11.0523 6.30228 11.5 5.75 11.5H1.75C1.19772 11.5 0.75 11.0523 0.75 10.5ZM12.75 14.5C13.3023 14.5 13.75 14.9477 13.75 15.5V19.5C13.75 20.0523 13.3023 20.5 12.75 20.5C12.1977 20.5 11.75 20.0523 11.75 19.5V18.5H1.75C1.19772 18.5 0.75 18.0523 0.75 17.5C0.75 16.9477 1.19772 16.5 1.75 16.5H11.75V15.5C11.75 14.9477 12.1977 14.5 12.75 14.5ZM15.75 17.5C15.75 16.9477 16.1977 16.5 16.75 16.5H19.75C20.3023 16.5 20.75 16.9477 20.75 17.5C20.75 18.0523 20.3023 18.5 19.75 18.5H16.75C16.1977 18.5 15.75 18.0523 15.75 17.5Z" fill="#B8B8D2"/>
</svg>
