<svg width="52" height="52" viewBox="0 0 52 52" fill="none" xmlns="http://www.w3.org/2000/svg">
<circle opacity="0.05" cx="26" cy="26" r="26" fill="#3D5CFF"/>
<path fill-rule="evenodd" clip-rule="evenodd" d="M16.8333 24.75C16.8333 20.3778 20.3777 16.8333 24.75 16.8333C29.1222 16.8333 32.6666 20.3778 32.6666 24.75C32.6666 26.6359 32.0072 28.3679 30.9062 29.7277L33.9672 32.7887C34.2926 33.1141 34.2926 33.6418 33.9672 33.9672C33.6418 34.2926 33.1141 34.2926 32.7887 33.9672L29.7277 30.9063C28.3679 32.0072 26.6359 32.6667 24.75 32.6667C20.3777 32.6667 16.8333 29.1222 16.8333 24.75ZM24.75 18.5C21.2982 18.5 18.5 21.2982 18.5 24.75C18.5 28.2018 21.2982 31 24.75 31C28.2017 31 31 28.2018 31 24.75C31 21.2982 28.2017 18.5 24.75 18.5Z" fill="#465CFF"/>
</svg>
