<svg width="20" height="20" viewBox="0 0 20 20" fill="none" xmlns="http://www.w3.org/2000/svg">
<path fill-rule="evenodd" clip-rule="evenodd" d="M0.833313 8.74998C0.833313 4.37774 4.37774 0.833313 8.74998 0.833313C13.1222 0.833313 16.6666 4.37774 16.6666 8.74998C16.6666 10.6359 16.0072 12.3679 14.9062 13.7277L17.9672 16.7887C18.2926 17.1141 18.2926 17.6418 17.9672 17.9672C17.6418 18.2926 17.1141 18.2926 16.7887 17.9672L13.7277 14.9062C12.3679 16.0072 10.6359 16.6666 8.74998 16.6666C4.37774 16.6666 0.833313 13.1222 0.833313 8.74998ZM8.74998 2.49998C5.29822 2.49998 2.49998 5.29822 2.49998 8.74998C2.49998 12.2017 5.29822 15 8.74998 15C12.2017 15 15 12.2017 15 8.74998C15 5.29822 12.2017 2.49998 8.74998 2.49998ZM5.8037 5.38699C6.55684 4.63391 7.59964 4.16665 8.74998 4.16665C9.90032 4.16665 10.9431 4.63391 11.6962 5.38702C12.0217 5.71245 12.0217 6.24009 11.6962 6.56553C11.3708 6.89096 10.8432 6.89096 10.5177 6.56553C10.0644 6.11222 9.44056 5.83331 8.74998 5.83331C8.05941 5.83331 7.43554 6.11221 6.98217 6.56555C6.65672 6.89097 6.12909 6.89095 5.80366 6.56551C5.47824 6.24006 5.47825 5.71242 5.8037 5.38699Z" fill="#B8B8D2"/>
</svg>
