<svg width="93" height="17" viewBox="0 0 93 17" fill="none" xmlns="http://www.w3.org/2000/svg">
<path d="M8.17615 1.75012C8.28288 1.44307 8.71712 1.44308 8.82385 1.75012L10.1049 5.43559C10.2258 5.78337 10.5504 6.01918 10.9185 6.02668L14.8194 6.10618C15.1444 6.1128 15.2786 6.52578 15.0196 6.72217L11.9104 9.07941C11.617 9.30185 11.493 9.6834 11.5996 10.0358L12.7295 13.7704C12.8236 14.0816 12.4723 14.3368 12.2055 14.1511L9.00281 11.9225C8.70059 11.7122 8.29941 11.7122 7.99719 11.9225L4.79452 14.1511C4.5277 14.3368 4.17639 14.0816 4.27052 13.7704L5.40038 10.0358C5.507 9.6834 5.38303 9.30185 5.08963 9.07941L1.98041 6.72217C1.72137 6.52578 1.85556 6.1128 2.18056 6.10618L6.08152 6.02668C6.44964 6.01918 6.7742 5.78337 6.89508 5.43559L8.17615 1.75012Z" fill="#F6DF08" stroke="#F6DF08" stroke-width="0.537446"/>
<path d="M27.1762 1.75012C27.2829 1.44307 27.7171 1.44308 27.8238 1.75012L29.1049 5.43559C29.2258 5.78337 29.5504 6.01918 29.9185 6.02668L33.8194 6.10618C34.1444 6.1128 34.2786 6.52578 34.0196 6.72217L30.9104 9.07941C30.617 9.30185 30.493 9.6834 30.5996 10.0358L31.7295 13.7704C31.8236 14.0816 31.4723 14.3368 31.2055 14.1511L28.0028 11.9225C27.7006 11.7122 27.2994 11.7122 26.9972 11.9225L23.7945 14.1511C23.5277 14.3368 23.1764 14.0816 23.2705 13.7704L24.4004 10.0358C24.507 9.6834 24.383 9.30185 24.0896 9.07941L20.9804 6.72217C20.7214 6.52578 20.8556 6.1128 21.1806 6.10618L25.0815 6.02668C25.4496 6.01918 25.7742 5.78337 25.8951 5.43559L27.1762 1.75012Z" fill="#F6DF08" stroke="#F6DF08" stroke-width="0.537446"/>
<path d="M46.1762 1.75012C46.2829 1.44307 46.7171 1.44308 46.8238 1.75012L48.1049 5.43559C48.2258 5.78337 48.5504 6.01918 48.9185 6.02668L52.8194 6.10618C53.1444 6.1128 53.2786 6.52578 53.0196 6.72217L49.9104 9.07941C49.617 9.30185 49.493 9.6834 49.5996 10.0358L50.7295 13.7704C50.8236 14.0816 50.4723 14.3368 50.2055 14.1511L47.0028 11.9225C46.7006 11.7122 46.2994 11.7122 45.9972 11.9225L42.7945 14.1511C42.5277 14.3368 42.1764 14.0816 42.2705 13.7704L43.4004 10.0358C43.507 9.6834 43.383 9.30185 43.0896 9.07941L39.9804 6.72217C39.7214 6.52578 39.8556 6.1128 40.1806 6.10618L44.0815 6.02668C44.4496 6.01918 44.7742 5.78337 44.8951 5.43559L46.1762 1.75012Z" fill="#F6DF08" stroke="#F6DF08" stroke-width="0.537446"/>
<path d="M65.1762 1.75012C65.2829 1.44307 65.7171 1.44308 65.8238 1.75012L67.1049 5.43559C67.2258 5.78337 67.5504 6.01918 67.9185 6.02668L71.8194 6.10618C72.1444 6.1128 72.2786 6.52578 72.0196 6.72217L68.9104 9.07941C68.617 9.30185 68.493 9.6834 68.5996 10.0358L69.7295 13.7704C69.8236 14.0816 69.4723 14.3368 69.2055 14.1511L66.0028 11.9225C65.7006 11.7122 65.2994 11.7122 64.9972 11.9225L61.7945 14.1511C61.5277 14.3368 61.1764 14.0816 61.2705 13.7704L62.4004 10.0358C62.507 9.6834 62.383 9.30185 62.0896 9.07941L58.9804 6.72217C58.7214 6.52578 58.8556 6.1128 59.1806 6.10618L63.0815 6.02668C63.4496 6.01918 63.7742 5.78337 63.8951 5.43559L65.1762 1.75012Z" fill="#F6DF08" stroke="#F6DF08" stroke-width="0.537446"/>
<path d="M84.1762 1.75012C84.2829 1.44307 84.7171 1.44308 84.8238 1.75012L86.1049 5.43559C86.2258 5.78337 86.5504 6.01918 86.9185 6.02668L90.8194 6.10618C91.1444 6.1128 91.2786 6.52578 91.0196 6.72217L87.9104 9.07941C87.617 9.30185 87.493 9.6834 87.5996 10.0358L88.7295 13.7704C88.8236 14.0816 88.4723 14.3368 88.2055 14.1511L85.0028 11.9225C84.7006 11.7122 84.2994 11.7122 83.9972 11.9225L80.7945 14.1511C80.5277 14.3368 80.1764 14.0816 80.2705 13.7704L81.4004 10.0358C81.507 9.6834 81.383 9.30185 81.0896 9.07941L77.9804 6.72217C77.7214 6.52578 77.8556 6.1128 78.1806 6.10618L82.0815 6.02668C82.4496 6.01918 82.7742 5.78337 82.8951 5.43559L84.1762 1.75012Z" fill="#F6DF08" stroke="#F6DF08" stroke-width="0.537446"/>
</svg>
