<svg width="12" height="16" viewBox="0 0 12 16" fill="none" xmlns="http://www.w3.org/2000/svg">
<path fill-rule="evenodd" clip-rule="evenodd" d="M0 3.10321C0 1.86057 1.00736 0.85321 2.25 0.85321H10.5C11.3284 0.85321 12 1.52478 12 2.35321V12.0957C12 12.2214 11.9717 12.3368 11.9154 12.4495L11.5062 13.2678C11.4007 13.4789 11.4007 13.7275 11.5062 13.9386L11.9141 14.7543C11.9689 14.8585 12 14.9772 12 15.1032C12 15.5174 11.6642 15.8532 11.25 15.8532H2.25C1.00736 15.8532 0 14.8459 0 13.6032V3.10321ZM2.25 12.8532H10.0557C9.88416 13.3383 9.88416 13.8681 10.0557 14.3532H2.25C1.83579 14.3532 1.5 14.0174 1.5 13.6032C1.5 13.189 1.83579 12.8532 2.25 12.8532ZM4.5 4.60321C4.08579 4.60321 3.75 4.939 3.75 5.35321C3.75 5.76742 4.08579 6.10321 4.5 6.10321H7.5C7.91421 6.10321 8.25 5.76742 8.25 5.35321C8.25 4.939 7.91421 4.60321 7.5 4.60321H4.5Z" fill="#B8B8D2"/>
</svg>
