<svg width="14" height="14" viewBox="0 0 14 14" fill="none" xmlns="http://www.w3.org/2000/svg">
<path fill-rule="evenodd" clip-rule="evenodd" d="M0.585786 0.58577C0.97631 0.195246 1.60948 0.195246 2 0.58577L7 5.58577L12 0.58577C12.3905 0.195246 13.0237 0.195246 13.4142 0.58577C13.8047 0.976295 13.8047 1.60946 13.4142 1.99998L8.41421 6.99998L13.4142 12C13.8047 12.3905 13.8047 13.0237 13.4142 13.4142C13.0237 13.8047 12.3905 13.8047 12 13.4142L7 8.4142L2 13.4142C1.60948 13.8047 0.97631 13.8047 0.585786 13.4142C0.195261 13.0237 0.195261 12.3905 0.585786 12L5.58579 6.99998L0.585786 1.99998C0.195261 1.60946 0.195261 0.976295 0.585786 0.58577Z" fill="#858597"/>
</svg>
